<?xml version="1.0" standalone="no"?><!DOCTYPE svg PUBLIC "-//W3C//DTD SVG 1.1//EN" "http://www.w3.org/Graphics/SVG/1.1/DTD/svg11.dtd"><svg t="1660326234639" class="icon" viewBox="0 0 1024 1024" version="1.1" xmlns="http://www.w3.org/2000/svg" p-id="3646" xmlns:xlink="http://www.w3.org/1999/xlink" width="28" height="28"><defs><style type="text/css">@font-face { font-family: feedback-iconfont; src: url("//at.alicdn.com/t/font_1031158_u69w8yhxdu.woff2?t=1630033759944") format("woff2"), url("//at.alicdn.com/t/font_1031158_u69w8yhxdu.woff?t=1630033759944") format("woff"), url("//at.alicdn.com/t/font_1031158_u69w8yhxdu.ttf?t=1630033759944") format("truetype"); }
</style></defs><path d="M85.333333 853.333333m42.666667 0l768 0q42.666667 0 42.666667 42.666667l0 0q0 42.666667-42.666667 42.666667l-768 0q-42.666667 0-42.666667-42.666667l0 0q0-42.666667 42.666667-42.666667Z" p-id="3647" fill="#8a8a8a"></path><path d="M618.666667 181.333333m42.666666 0l192 0q42.666667 0 42.666667 42.666667l0 0q0 42.666667-42.666667 42.666667l-192 0q-42.666667 0-42.666666-42.666667l0 0q0-42.666667 42.666666-42.666667Z" p-id="3648" fill="#8a8a8a"></path><path d="M714.666667 85.333333m42.666666 0l0 0q42.666667 0 42.666667 42.666667l0 192q0 42.666667-42.666667 42.666667l0 0q-42.666667 0-42.666666-42.666667l0-192q0-42.666667 42.666666-42.666667Z" p-id="3649" fill="#8a8a8a"></path><path d="M341.333333 149.333333c70.688 0 128 57.312 128 128v384c0 70.688-57.312 128-128 128h-85.333333c-70.688 0-128-57.312-128-128V277.333333c0-70.688 57.312-128 128-128h85.333333z m0 85.333334h-85.333333a42.666667 42.666667 0 0 0-42.613333 40.533333L213.333333 277.333333v384a42.666667 42.666667 0 0 0 40.533334 42.613334L256 704h85.333333a42.666667 42.666667 0 0 0 42.613334-40.533333L384 661.333333V277.333333a42.666667 42.666667 0 0 0-40.533333-42.613333L341.333333 234.666667zM768 426.666667c70.688 0 128 57.312 128 128v106.666666c0 70.688-57.312 128-128 128h-85.333333c-70.688 0-128-57.312-128-128V554.666667c0-70.688 57.312-128 128-128h85.333333z m0 85.333333h-85.333333a42.666667 42.666667 0 0 0-42.613334 40.533333L640 554.666667v106.666666a42.666667 42.666667 0 0 0 40.533333 42.613334L682.666667 704h85.333333a42.666667 42.666667 0 0 0 42.613333-40.533333L810.666667 661.333333V554.666667a42.666667 42.666667 0 0 0-40.533334-42.613334L768 512z" p-id="3650" fill="#8a8a8a"></path></svg>